<?xml version="1.0" encoding="UTF-8" standalone="no"?><!DOCTYPE svg PUBLIC "-//W3C//DTD SVG 1.1//EN" "http://www.w3.org/Graphics/SVG/1.1/DTD/svg11.dtd"><svg width="100%" height="100%" viewBox="0 0 512 512" version="1.1" xmlns="http://www.w3.org/2000/svg" xmlns:xlink="http://www.w3.org/1999/xlink" xml:space="preserve" xmlns:serif="http://www.serif.com/" style="fill-rule:evenodd;clip-rule:evenodd;stroke-linejoin:round;stroke-miterlimit:2;"><rect id="Artboard1" x="0" y="0" width="512" height="512" style="fill:none;"/><g><g id="bawah"><path d="M426.712,440.12l69.431,69.431l-242.766,0l-0.785,-0.001c-66.679,-0.204 -127.312,-26.492 -172.189,-69.43l346.309,0Zm-93.768,56.512c-24.395,8.179 -50.452,12.694 -77.516,12.911c27.067,-0.217 53.126,-4.732 77.516,-12.911Zm-252.541,-56.512c-49.079,-46.24 -79.626,-112.068 -79.626,-185.026c0,-66.905 25.689,-127.813 67.852,-173.057l357.91,357.911l-0.189,0.172l-345.947,0Zm74.157,-209.603c54.538,0 98.817,44.279 98.817,98.817c-0,54.539 -44.279,98.817 -98.817,98.817c-54.539,0 -98.817,-44.278 -98.817,-98.817c-0,-54.538 44.278,-98.817 98.817,-98.817Z" style="fill:url(#_Linear1);"/></g><g id="Atas"><path d="M253.123,70.068l-173.081,-0l-69.431,-69.431l242.766,0c-29.046,0 -56.954,4.949 -82.921,14.07c25.967,-9.121 53.875,-14.07 82.921,-14.07c66.988,0 127.921,26.325 172.973,69.431l-37.575,-0c-17.704,-16.723 -41.577,-26.98 -67.826,-26.98c-26.25,0 -50.122,10.257 -67.826,26.98l135.652,-0l-135.652,-0c-19.078,18.019 -30.991,43.548 -30.991,71.837c0,54.539 44.278,98.817 98.817,98.817c54.538,-0 98.817,-44.278 98.817,-98.817c-0,-28.289 -11.913,-53.818 -30.991,-71.837l37.575,-0c49.08,46.241 79.626,112.068 79.626,185.026c0,66.905 -25.688,127.814 -67.851,173.057l-357.911,-357.91l0.189,-0.173l172.72,-0Z" style="fill:url(#_Linear2);"/></g></g><defs><linearGradient id="_Linear1" x1="0" y1="0" x2="1" y2="0" gradientUnits="userSpaceOnUse" gradientTransform="matrix(495.365,0,0,427.514,0.777184,295.794)"><stop offset="0" style="stop-color:#00009b;stop-opacity:1"/><stop offset="1" style="stop-color:#00d8ff;stop-opacity:1"/></linearGradient><linearGradient id="_Linear2" x1="0" y1="0" x2="1" y2="0" gradientUnits="userSpaceOnUse" gradientTransform="matrix(495.365,0,0,427.514,10.6109,214.394)"><stop offset="0" style="stop-color:#00d8ff;stop-opacity:1"/><stop offset="0.57" style="stop-color:#0042ba;stop-opacity:1"/><stop offset="1" style="stop-color:#00009b;stop-opacity:1"/></linearGradient></defs></svg>