<?xml version="1.0" encoding="UTF-8" standalone="no"?><!DOCTYPE svg PUBLIC "-//W3C//DTD SVG 1.1//EN" "http://www.w3.org/Graphics/SVG/1.1/DTD/svg11.dtd"><svg width="100%" height="100%" viewBox="0 0 150 150" version="1.1" xmlns="http://www.w3.org/2000/svg" xmlns:xlink="http://www.w3.org/1999/xlink" xml:space="preserve" xmlns:serif="http://www.serif.com/" style="fill-rule:evenodd;clip-rule:evenodd;stroke-linejoin:round;stroke-miterlimit:2;"><rect id="Artboard1" x="0" y="0" width="150" height="150" style="fill:none;"/><clipPath id="_clip1"><rect id="Artboard11" serif:id="Artboard1" x="0" y="0" width="150" height="150"/></clipPath><g clip-path="url(#_clip1)"><g><g id="bawah"><path d="M126.465,129.536l20.615,20.464l-72.08,0l-0.233,-0c-19.798,-0.061 -37.801,-7.809 -51.125,-20.464l102.823,-0Zm-27.84,16.656c-7.244,2.411 -14.98,3.742 -23.016,3.805c8.037,-0.063 15.774,-1.394 23.016,-3.805Zm-74.983,-16.656c-14.572,-13.63 -23.642,-33.032 -23.642,-54.536c0,-19.72 7.627,-37.672 20.146,-51.008l106.268,105.493l-0.056,0.051l-102.716,-0Zm22.018,-61.78c16.193,0 29.34,13.051 29.34,29.126c0,16.075 -13.147,29.126 -29.34,29.126c-16.193,-0 -29.34,-13.051 -29.34,-29.126c0,-16.075 13.147,-29.126 29.34,-29.126Z" style="fill:url(#_Linear2);"/></g><g id="Atas"><path d="M74.925,20.464l-51.39,0l-20.615,-20.464l72.08,-0c-8.624,-0 -16.91,1.459 -24.62,4.147c7.71,-2.688 15.996,-4.147 24.62,-4.147c19.89,0 37.981,7.759 51.358,20.464l-11.157,0c-5.256,-4.929 -12.344,-7.952 -20.138,-7.952c-7.794,0 -14.882,3.023 -20.138,7.952l40.276,0l-40.276,0c-5.665,5.312 -9.202,12.836 -9.202,21.174c0,16.075 13.147,29.126 29.34,29.126c16.193,-0 29.34,-13.051 29.34,-29.126c0,-8.338 -3.537,-15.862 -9.202,-21.174l11.157,0c14.572,13.63 23.642,33.032 23.642,54.536c0,19.72 -7.627,37.672 -20.146,51.008l-106.268,-105.493l0.056,-0.051l51.283,0Z" style="fill:url(#_Linear3);"/></g></g></g><defs><linearGradient id="_Linear2" x1="0" y1="0" x2="1" y2="0" gradientUnits="userSpaceOnUse" gradientTransform="matrix(147.08,0,0,126.008,0,86.9961)"><stop offset="0" style="stop-color:#00009b;stop-opacity:1"/><stop offset="1" style="stop-color:#00d8ff;stop-opacity:1"/></linearGradient><linearGradient id="_Linear3" x1="0" y1="0" x2="1" y2="0" gradientUnits="userSpaceOnUse" gradientTransform="matrix(147.08,0,0,126.008,2.91974,63.0039)"><stop offset="0" style="stop-color:#00d8ff;stop-opacity:1"/><stop offset="0.57" style="stop-color:#0042ba;stop-opacity:1"/><stop offset="1" style="stop-color:#00009b;stop-opacity:1"/></linearGradient></defs></svg>